<?xml version="1.0" encoding="utf-8"?>
<!-- Generator: Adobe Illustrator 16.0.0, SVG Export Plug-In . SVG Version: 6.00 Build 0)  -->
<!DOCTYPE svg PUBLIC "-//W3C//DTD SVG 1.1//EN" "http://www.w3.org/Graphics/SVG/1.1/DTD/svg11.dtd">
<svg version="1.1" id="Layer_1" xmlns="http://www.w3.org/2000/svg" xmlns:xlink="http://www.w3.org/1999/xlink" x="0px" y="0px"
	 width="200px" height="200px" viewBox="0 0 200 200" enable-background="new 0 0 200 200" xml:space="preserve">
<path fill="none" d="M0,0h200v200H0V0z"/>
<path d="M168.757,100.451c-0.447-19.147-9.616-29.847-18.67-35.765c-7.255-4.659-15.708-7.106-24.328-7.045h-2.168V36.868h-20.405
	v20.773H80.969V36.868H60.558v20.773H39.242l0.093,21.315H60.47v42.002H39.242v20.678h21.315v21.496h20.411v-21.496h22.217v21.496
	h20.413v-21.496h3.612c7.12,0.043,14.137-1.695,20.412-5.058C169.299,124.802,168.757,100.451,168.757,100.451z M145.498,110.147
	c-1.325,2.589-3.193,4.861-5.477,6.663c-3.637,2.791-8.104,4.281-12.688,4.233H81.027v-42.03l46.43-0.115
	c2.177-0.024,4.347,0.273,6.438,0.881c4.878,1.435,8.98,4.756,11.401,9.226C148.895,95.576,148.971,103.511,145.498,110.147
	L145.498,110.147z"/>
</svg>
