<?xml version="1.0" encoding="utf-8"?>
<!-- Generator: Adobe Illustrator 16.0.0, SVG Export Plug-In . SVG Version: 6.00 Build 0)  -->
<!DOCTYPE svg PUBLIC "-//W3C//DTD SVG 1.1//EN" "http://www.w3.org/Graphics/SVG/1.1/DTD/svg11.dtd">
<svg version="1.1" id="Layer_1" xmlns="http://www.w3.org/2000/svg" xmlns:xlink="http://www.w3.org/1999/xlink" x="0px" y="0px"
	 width="200px" height="200px" viewBox="0 0 200 200" enable-background="new 0 0 200 200" xml:space="preserve">
<path fill="none" d="M0,0h200v200H0V0z"/>
<g>
	<path d="M61.957,136.887l1.322,3.305l3.31,6.618c-1.657-5.952-3.97-11.909-6.287-17.536L61.957,136.887 M60.302,128.947
		l7.28,18.855l2.313,2.974l-9.924-25.47l0.33,3.307"/>
	<path d="M59.972,124.974c3.97,8.938,7.61,17.869,10.586,26.469l1.986,2.313c-3.801-10.628-7.997-21.107-12.572-31.427V124.974"/>
	<path d="M59.972,121.996c4.959,10.591,9.264,21.502,13.231,32.422l1.987,1.651c-4.455-12.328-9.418-24.468-14.888-36.387v2.313"/>
	<path d="M59.972,119.683c5.954,12.244,11.246,24.48,16.209,37.054l1.655,1.319c-5.292-13.893-11.248-27.126-17.865-40.354V119.683"
		/>
	<path d="M60.302,117.702c7.28,13.892,13.231,27.783,18.528,41.019l1.652,0.66c-5.917-14.864-12.542-29.437-19.849-43.665v1.986"/>
	<path d="M60.633,115.716c7.609,14.556,14.557,29.44,20.843,44.327l1.323,0.991c-6.285-16.536-13.563-31.761-21.836-46.972v1.653"/>
	<path d="M60.963,114.063c8.603,15.211,16.543,31.094,23.158,47.305l1.323,0.66c-6.948-16.871-15.217-33.414-23.818-49.623
		L60.963,114.063"/>
	<path d="M61.626,112.404c9.261,16.543,17.533,33.081,25.141,49.956l1.324,0.66c-8.272-18.522-16.874-36.061-26.465-51.942V112.404"
		/>
	<path d="M61.957,111.078c9.924,16.542,19.187,34.407,27.457,52.27l1.325,0.333c-8.933-19.183-18.526-37.379-28.452-54.254
		l-0.329,1.324"/>
	<path d="M92.06,164.014h1.323c-9.592-19.851-19.85-38.378-30.435-55.909l-0.663,1.322C73.103,127.123,83.038,145.343,92.06,164.014
		"/>
	<path d="M94.707,164.345h1.323c-9.977-19.497-20.908-38.48-32.751-56.9v0.66c11.579,18.197,22.166,37.052,31.76,56.24H94.707z"/>
	<path d="M97.354,164.674h1.323c-10.623-20.176-22.216-39.827-34.735-58.885l-0.663,1.322c12.24,18.524,23.819,37.387,34.075,57.233
		"/>
	<path d="M99.999,164.674h1.326c-11.314-20.511-23.571-40.492-36.723-59.878l-0.66,0.993c14.224,21.171,26.466,41.35,36.389,58.885"
		/>
	<path d="M102.978,164.674h0.993c-12.241-20.843-25.141-41.352-39.04-61.202l-0.329,1.324
		c13.234,19.187,26.466,39.367,38.044,59.878"/>
	<path d="M106.285,164.345c-12.608-21.161-26.071-41.798-40.36-61.864l-0.66,0.991c14.225,19.851,27.788,40.026,40.359,60.873h1.324
		"/>
	<path d="M109.264,163.681c-13.564-21.169-28.121-42.012-43.006-62.189l-0.662,0.989c14.887,19.849,29.111,40.362,42.346,61.533
		h1.322"/>
	<path d="M111.58,163.021c-14.227-21.503-29.115-42.345-44.662-62.525l-0.661,0.996c17.534,22.491,32.752,44.325,44.33,61.856
		L111.58,163.021"/>
	<path d="M112.902,162.36h1.323l-0.663-0.993c-14.886-21.176-30.104-41.685-46.314-61.863l-0.33,0.991
		c15.88,20.18,31.428,41.022,46.314,61.865 M115.548,161.367h0.994l-0.994-1.986c-15.879-20.51-31.097-41.352-47.306-60.539
		l-0.66,0.662C84.121,119.683,99.999,140.524,115.548,161.367"/>
	<path d="M118.858,159.71c-16.212-20.863-32.866-41.381-49.954-61.53l-0.662,0.662c16.872,20.513,33.742,41.018,49.622,61.867
		c0.66,0,0.994-0.333,0.994-0.666"/>
	<path d="M121.172,158.387c-16.742-20.799-33.834-41.312-51.276-61.531l-0.66,0.994c17.532,19.853,34.735,40.358,51.607,61.205
		l0.662-0.667 M123.818,156.736c-17.614-20.4-35.48-40.583-53.591-60.541l-0.662,0.66c19.848,21.834,37.711,43.005,52.931,60.54
		c0.33,0,0.662,0,0.992-0.659 M125.804,155.082L70.888,95.533l-0.66,0.662c20.18,21.507,39.036,42.343,54.583,59.547
		L125.804,155.082 M127.791,153.429c-18.699-19.678-37.445-39.312-56.24-58.887l-0.663,0.66l56.239,58.887
		C127.127,154.089,127.127,153.429,127.791,153.429 M129.442,151.442L72.544,93.882l-0.993,0.66l57.229,57.563L129.442,151.442
		 M131.428,149.125c-19.848-18.524-39.038-37.381-58.225-56.236l-0.659,0.66c21.169,20.843,41.019,40.362,58.222,56.24
		L131.428,149.125 M132.752,147.139c-19.85-18.191-39.369-36.388-58.555-54.914l-0.994,0.664
		c19.85,18.522,39.037,37.052,59.549,54.914l0.33-0.664 M134.735,144.825L74.857,91.564l-0.66,0.66
		c19.516,18.197,39.698,36.063,59.544,53.261l0.664-0.66 M135.729,142.178c-20.512-16.542-40.361-33.742-59.879-51.275l-0.993,0.662
		c19.849,17.531,39.698,34.737,60.208,51.607L135.729,142.178"/>
	<path d="M136.06,140.857l0.663-0.997l-1.324-1.322C115.548,122.993,95.7,106.782,76.514,90.24l-0.664,0.662
		c19.85,17.202,39.698,33.744,60.542,49.622"/>
	<path d="M137.383,138.207l0.332-0.989l-0.662-0.331c-20.181-15.218-40.029-31.098-59.546-47.309l-0.992,0.663
		c19.849,16.542,39.695,32.089,59.877,47.307L137.383,138.207"/>
	<path d="M138.376,134.567c-16.871-12.238-38.045-27.785-59.879-45.65l-0.99,0.66c19.847,15.88,39.696,31.431,60.87,46.316V134.567"
		/>
	<path d="M139.368,131.927c-20.844-13.897-41.021-28.455-60.208-43.671l-0.994,0.662c19.85,15.547,39.699,30.105,60.541,43.997
		v-0.987"/>
	<path d="M139.368,129.273c-19.85-13.23-39.699-27.122-58.886-41.68l-0.992,0.662c19.367,14.832,39.342,28.846,59.878,42.016
		V129.273"/>
	<path d="M140.028,126.631c-19.848-12.568-39.697-25.473-58.553-39.7l-0.994,0.662c19.242,14.227,39.11,27.58,59.546,40.027V126.631
		"/>
	<path d="M140.028,124.974v-1.324c-19.848-11.572-38.703-23.816-57.229-37.047l-1.323,0.329
		C99.669,100.165,119.188,112.737,140.028,124.974"/>
	<path d="M140.028,122.329v-1.32c-19.3-10.775-38.069-22.479-56.237-35.069l-0.992,0.662
		C100.331,98.842,119.519,110.751,140.028,122.329"/>
	<path d="M139.698,119.683v-1.653c-18.855-9.925-37.052-21.174-54.584-33.081l-1.323,0.66c17.534,11.578,36.39,23.156,56.237,33.747
		"/>
	<path d="M139.368,116.702v-1.317c-18.525-9.267-36.391-19.521-52.931-30.436l-1.323,0.331
		C102.641,96.687,120.749,107.179,139.368,116.702"/>
	<path d="M138.706,112.737c-17.534-8.602-34.405-17.864-50.944-28.451l-1.324,0.662c16.209,9.924,33.743,19.847,52.601,29.114
		L138.706,112.737"/>
	<path d="M137.715,110.091c-16.543-7.939-33.085-16.542-48.632-26.135l-1.321,0.331c15.547,9.924,32.419,18.856,50.283,27.125v-1.32
		"/>
	<path d="M136.723,107.444c-15.88-7.28-31.099-15.22-46.315-23.822l-1.325,0.333c15.547,9.262,31.76,17.536,48.3,24.809
		L136.723,107.444"/>
	<path d="M135.398,104.796c-14.556-6.616-29.113-13.894-43.008-21.502h-1.652c14.555,8.602,29.775,16.211,45.322,22.825
		l-0.661-1.653"/>
	<path d="M134.073,101.82c-13.561-5.625-26.797-11.912-39.697-18.858H92.39c13.895,7.609,28.123,14.558,42.345,20.509
		L134.073,101.82"/>
	<path d="M132.088,99.173c-12.239-4.962-24.146-10.587-36.058-16.54h-1.984c12.903,6.616,25.803,12.9,39.367,18.193L132.088,99.173"
		/>
	<path d="M130.104,96.195c-10.915-3.971-21.17-8.602-31.427-13.896h-2.313c11.248,5.956,23.155,11.249,35.064,15.88L130.104,96.195"
		/>
	<path d="M128.121,94.542l-0.994-0.993c-8.603-3.309-17.203-7.276-25.802-11.249h-2.648c9.766,4.45,19.699,8.535,29.773,12.242"/>
	<path d="M123.488,90.24l-18.528-7.607h-3.305l24.479,9.924L123.488,90.24 M116.209,85.94l-3.307-1.324
		c-2.315-0.994-4.631-1.322-7.278-1.653l17.202,6.615C120.513,87.924,118.524,86.931,116.209,85.94"/>
	<path d="M138.045,63.442l-1.322-3.305l-3.311-6.615c1.653,5.953,3.971,11.578,6.286,17.529L138.045,63.442 M139.698,71.384
		l-7.61-19.187l-1.984-2.646l9.925,25.474L139.698,71.384"/>
	<path d="M140.028,75.024c-3.969-8.603-7.609-17.534-10.916-26.469l-1.654-1.983c3.638,10.585,7.94,21.171,12.57,31.427V75.024"/>
	<path d="M140.028,78.331c-5.048-10.846-9.683-21.883-13.894-33.083l-1.654-1.32c4.3,12.24,9.593,24.147,14.888,36.389v-2.646"/>
	<path d="M139.698,80.317c-5.625-11.913-11.248-24.482-15.88-37.053c-0.541-0.346-1.094-0.677-1.653-0.993
		c5.293,13.564,10.917,27.127,17.533,40.362V80.317"/>
	<path d="M139.368,82.633c-6.616-13.235-12.571-27.129-18.196-41.022l-1.653-0.993c5.956,14.887,12.569,29.775,19.85,43.669V82.633"
		/>
	<path d="M139.368,84.616c-7.61-14.554-14.558-29.774-20.844-44.658l-1.652-0.663c6.616,16.541,14.224,32.089,21.834,46.978
		L139.368,84.616"/>
	<path d="M138.706,86.273c-8.27-15.551-15.88-31.431-23.158-47.64l-0.992-0.66c6.949,17.203,14.887,33.743,23.82,49.621
		L138.706,86.273"/>
	<path d="M138.376,87.924c-9.264-16.54-17.533-33.083-25.144-50.285l-1.322-0.329c7.819,17.746,16.542,35.082,26.135,51.938
		L138.376,87.924"/>
	<path d="M138.045,89.249c-9.924-16.872-19.187-34.407-27.458-52.601h-1.323c8.931,18.856,18.194,37.049,28.451,53.923v-1.322"/>
	<path d="M107.941,36.319l-1.323-0.333c9.591,19.849,19.849,38.707,30.435,56.238l0.662-1.653
		C126.909,72.984,116.971,54.879,107.941,36.319"/>
	<path d="M105.293,35.655h-1.322c10.255,20.18,21.173,39.698,32.421,57.563l0.661-1.322
		C125.475,73.698,114.886,54.842,105.293,35.655"/>
	<path d="M102.646,35.326h-1.321c10.915,20.842,22.493,40.687,34.734,58.885l0.663-0.993c-12.904-18.858-23.82-38.042-34.408-57.892
		"/>
	<path d="M99.669,35.326h-0.992c11.58,21.502,24.149,41.681,36.722,60.207l0.661-0.991C121.835,73.04,109.594,52.528,99.669,35.326z
		"/>
	<path d="M97.023,35.326h-0.66c11.908,21.171,25.142,41.681,39.035,61.201l0.331-0.994c-13.233-19.52-26.466-39.698-38.376-60.207"
		/>
	<path d="M93.383,35.986c12.833,21.06,26.518,41.588,41.022,61.534l0.66-0.993c-14.553-19.849-27.789-39.698-40.689-60.872h-0.993"
		/>
	<path d="M90.738,36.319c13.563,21.5,27.787,42.012,43.003,62.19l0.664-0.989c-14.887-19.849-29.112-40.362-42.345-61.201H90.738"/>
	<path d="M88.092,37.311c14.28,21.239,29.286,41.981,44.99,62.194l0.659-0.662c-15.547-20.511-30.764-41.022-44.328-61.865h-1.321"
		/>
	<path d="M86.768,37.64l-0.992,0.333l0.662,0.991C98.677,56.498,114.226,78,132.752,100.496l0.33-0.991
		c-15.88-19.851-31.098-40.36-45.984-61.203L86.768,37.64"/>
	<path d="M84.121,38.633l-0.992,0.331l1.322,1.985c15.218,20.511,31.097,40.691,47.307,60.542l0.661-0.996
		C116.209,80.648,99.669,59.806,84.121,38.633"/>
	<path d="M80.812,40.289c14.557,18.524,31.428,39.696,50.284,62.192l0.662-0.989C114.778,81.337,98.234,60.82,82.135,39.958
		L80.812,40.289"/>
	<path d="M78.497,41.942l51.94,61.201l0.659-0.662C113.659,82.372,96.564,61.968,79.82,41.282l-0.99,0.329 M76.844,43.264
		l52.929,60.872l0.992-0.993C112.877,83.18,95.232,62.996,77.836,42.604C77.174,42.604,76.844,42.935,76.844,43.264 M74.527,44.919
		l54.915,59.876l0.661-0.66L75.519,44.588L74.527,44.919 M72.544,46.902l56.236,58.887c0-0.331,0-0.66,0.662-0.993L72.873,46.242
		l-0.661,0.66 M70.228,48.889l57.23,57.563l0.663-0.662L71.218,47.896L70.228,48.889 M68.572,50.873l58.225,56.238l0.661-0.66
		L69.235,50.213L68.572,50.873 M66.918,53.188c19.849,17.863,39.7,36.389,58.885,54.587l0.993-0.664
		c-19.511-18.549-39.253-36.854-59.215-54.914L66.918,53.188 M65.595,55.504l59.548,52.931l0.66-0.331
		c-19.519-18.196-39.366-36.389-59.215-53.594l-0.663,0.994"/>
	<path d="M64.272,57.82c20.179,16.54,40.358,34.076,59.878,51.607l0.993-0.662c-19.851-17.862-39.699-35.067-60.212-51.936
		L64.272,57.82"/>
	<path d="M63.61,59.475l-0.331,0.991l1.323,0.994c16.541,13.233,37.053,29.775,58.556,48.631l0.992-0.664
		C104.417,92.245,84.231,75.585,63.61,59.475 M62.619,61.791l-0.333,1.322l0.663,0.329c20.18,15.222,40.029,30.769,59.547,47.309
		l0.662-0.66c-19.188-16.542-39.367-32.42-59.548-47.638L62.619,61.791"/>
	<path d="M61.296,65.431c17.2,12.24,38.373,27.787,60.208,45.98l0.991-0.66c-19.85-16.209-40.031-31.427-60.87-46.313v0.993"/>
	<path d="M60.633,68.404c20.396,13.799,40.257,28.365,59.548,43.673l1.324-0.666c-19.85-15.547-39.7-30.434-60.542-44.327v1.32"/>
	<path d="M60.302,71.051c20.18,13.235,39.697,26.798,59.217,41.353l0.994-0.327c-19.521-14.891-39.701-29.115-59.88-42.348v1.322"/>
	<path d="M59.972,73.698c19.848,12.242,39.697,25.476,58.553,39.7l0.994-0.993C100.331,98.18,80.482,84.949,59.972,72.708V73.698"/>
	<g transform="translate(3 15)">
		<defs>
			<filter id="Adobe_OpacityMaskFilter" filterUnits="userSpaceOnUse" x="56.972" y="60.024" width="58.553" height="38.707">
				<feColorMatrix  type="matrix" values="1 0 0 0 0  0 1 0 0 0  0 0 1 0 0  0 0 0 1 0"/>
			</filter>
		</defs>
		<mask maskUnits="userSpaceOnUse" x="56.972" y="60.024" width="58.553" height="38.707" id="f_2_">
			<g filter="url(#Adobe_OpacityMaskFilter)">
				<path id="e_2_" fill="#FFFFFF" d="M56.972,60.353h58.553v38.378H56.972V60.353z"/>
			</g>
		</mask>
		<path mask="url(#f_2_)" d="M56.972,60.353v1.325c19.848,11.247,38.705,23.818,57.23,37.054l1.322-0.334
			C97.331,85.165,77.812,72.593,56.972,60.024"/>
	</g>
	<path d="M59.972,78v1.324c19.294,10.665,38.063,22.257,56.237,34.738c0.333-0.109,0.666-0.219,0.993-0.331
		C99.669,101.158,80.152,89.249,59.972,78z"/>
	<path d="M59.972,80.648l0.33,1.32c18.858,9.927,37.052,20.843,54.584,33.083l1.323-0.66C98.677,102.48,79.82,91.235,59.972,80.648"
		/>
	<path d="M60.633,83.293v1.322c18.197,9.266,36.061,19.849,52.93,30.769l1.323-0.667C98.016,103.805,79.82,93.218,60.633,83.293"/>
	<path d="M61.296,87.262c15.878,7.94,33.08,17.203,50.944,28.454l1.322-0.331c-16.539-10.589-33.743-20.512-52.6-29.445
		L61.296,87.262"/>
	<path d="M62.286,90.24c16.544,7.609,33.083,16.542,48.631,25.803h1.323c-15.547-9.925-32.42-18.856-50.614-27.457L62.286,90.24"/>
	<path d="M63.279,92.889c15.551,7.276,31.098,14.887,46.315,23.813l1.323-0.659c-15.548-8.932-31.757-17.201-48.298-24.479
		L63.279,92.889"/>
	<path d="M64.602,95.533c14.558,6.618,29.111,13.563,43.009,21.503l1.652-0.334c-14.887-8.267-29.774-15.875-45.654-22.491
		L64.602,95.533"/>
	<path d="M65.925,98.18c12.904,5.625,26.465,11.911,39.699,19.189l1.987-0.333c-13.898-7.609-28.122-14.225-42.68-20.181
		L65.925,98.18"/>
	<path d="M67.912,101.158c12.137,5.001,24.061,10.521,35.727,16.544l1.985-0.333c-12.571-6.618-25.804-12.573-39.036-17.865
		L67.912,101.158"/>
	<path d="M69.896,103.805c10.256,3.971,20.842,8.6,31.43,13.897h2.313c-11.579-5.958-23.157-10.92-35.066-15.551L69.896,103.805"/>
	<path d="M71.551,105.789l0.993,0.993c8.599,3.309,17.201,6.615,26.133,10.92h2.648C91.552,113.358,81.62,109.384,71.551,105.789"/>
	<path d="M76.514,109.758l18.524,7.611l3.308,0.333l-24.813-9.927L76.514,109.758 M84.121,114.392l3.307,1.324l6.949,1.653
		l-16.54-6.618c1.653,1.326,3.969,2.646,6.285,3.312"/>
</g>
</svg>
