<?xml version="1.0" encoding="utf-8"?>
<!-- Generator: Adobe Illustrator 16.0.0, SVG Export Plug-In . SVG Version: 6.00 Build 0)  -->
<!DOCTYPE svg PUBLIC "-//W3C//DTD SVG 1.1//EN" "http://www.w3.org/Graphics/SVG/1.1/DTD/svg11.dtd">
<svg version="1.1" id="Layer_1" xmlns="http://www.w3.org/2000/svg" xmlns:xlink="http://www.w3.org/1999/xlink" x="0px" y="0px"
	 width="200px" height="200px" viewBox="0 0 200 200" enable-background="new 0 0 200 200" xml:space="preserve">
<path fill="none" d="M0,0h200v200H0V0z"/>
<path d="M95.93,49.246c11.214-0.728,22.638,1.537,32.738,6.541c14.861,7.295,26.707,20.499,32.316,36.084
	c2.473,6.873,3.799,14.169,3.799,21.465v27.129c0,1.116,0.029,2.23-0.242,3.318c-0.604,2.742-2.563,5.154-5.125,6.3
	c-1.777,0.844-3.826,0.935-5.758,0.634c-4.129-0.755-7.355-4.642-7.385-8.833c-0.029-8.41,0-16.82,0-25.262
	c0.059-2.381,0.09-4.945-1.207-7.054c-2.109-3.889-7.174-5.729-11.273-4.068c-3.469,1.234-5.969,4.73-6,8.409
	c-0.029,8.561,0,17.092,0,25.623c0,1.597,0.092,3.227-0.391,4.764c-0.875,3.015-3.377,5.457-6.391,6.271
	c-3.949,1.086-8.502-0.663-10.492-4.311c-1.355-2.201-1.266-4.854-1.234-7.326c-0.031-8.47,0.029-16.972-0.031-25.441
	c-0.09-4.312-3.617-8.201-7.898-8.744c-2.772-0.421-5.696,0.513-7.717,2.473c-1.808,1.72-2.862,4.19-2.862,6.693v24.718
	c-0.031,2.081,0.21,4.222-0.571,6.181c-1.236,3.525-4.793,6.121-8.562,6.029c-3.858,0.211-7.598-2.443-8.832-6.06
	c-0.699-1.784-0.542-3.71-0.542-5.58c0-8.53,0.029-17.062,0-25.593c-0.03-4.22-3.318-8.079-7.447-8.833
	c-3.768-0.813-7.928,1.085-9.796,4.462c-0.809,1.414-1.234,3.014-1.237,4.642v27.704c0.031,2.684-1.205,5.365-3.286,7.085
	c-3.134,2.742-8.198,2.894-11.484,0.362c-2.385-1.626-3.802-4.434-3.802-7.327v-28.065c0.029-10.61,2.714-21.192,7.775-30.537
	c4.13-7.627,9.827-14.41,16.638-19.836C69.884,55.002,82.756,50.028,95.93,49.246L95.93,49.246z"/>
</svg>
