<?xml version="1.0" encoding="utf-8"?>
<!-- Generator: Adobe Illustrator 16.0.0, SVG Export Plug-In . SVG Version: 6.00 Build 0)  -->
<!DOCTYPE svg PUBLIC "-//W3C//DTD SVG 1.1//EN" "http://www.w3.org/Graphics/SVG/1.1/DTD/svg11.dtd">
<svg version="1.1" id="Layer_1" xmlns="http://www.w3.org/2000/svg" xmlns:xlink="http://www.w3.org/1999/xlink" x="0px" y="0px"
	 width="200px" height="200px" viewBox="0 0 200 200" enable-background="new 0 0 200 200" xml:space="preserve">
<path fill="none" d="M0,0h200v200H0V0z"/>
<g>
	<polygon points="100.016,64.254 125.371,89.61 140.11,74.861 100.016,34.755 59.92,74.85 74.67,89.589 	"/>
	<polygon points="49.489,85.26 34.75,100.009 49.489,114.75 64.238,100.009 	"/>
	<polygon points="100.016,135.767 74.67,110.421 59.92,125.171 100.025,165.245 140.121,125.14 125.371,110.41 	"/>
	<polygon points="150.5,85.26 135.762,100.009 150.5,114.76 165.25,100 	"/>
	<polygon points="100.03,114.924 115,100.009 115,100 100.03,85.034 85.06,99.979 	"/>
</g>
</svg>
