<?xml version="1.0" encoding="utf-8"?>
<!-- Generator: Adobe Illustrator 16.0.0, SVG Export Plug-In . SVG Version: 6.00 Build 0)  -->
<!DOCTYPE svg PUBLIC "-//W3C//DTD SVG 1.1//EN" "http://www.w3.org/Graphics/SVG/1.1/DTD/svg11.dtd">
<svg version="1.1" id="Layer_1" xmlns="http://www.w3.org/2000/svg" xmlns:xlink="http://www.w3.org/1999/xlink" x="0px" y="0px"
	 width="200px" height="200px" viewBox="0 0 200 200" enable-background="new 0 0 200 200" xml:space="preserve">
<path fill="none" d="M0,0h200v200H0V0z"/>
<g>
	<path fill="#6F97D4" d="M63.868,135.033l1.256,3.139l3.144,6.285c-1.574-5.652-3.771-11.311-5.971-16.654L63.868,135.033
		 M62.297,127.492l6.914,17.908l2.197,2.824l-9.425-24.189l0.313,3.141"/>
	<path fill="#6F97D4" d="M61.983,123.719c3.771,8.488,7.228,16.971,10.054,25.139l1.887,2.197
		c-3.61-10.094-7.595-20.047-11.94-29.848V123.719"/>
	<path fill="#6F97D4" d="M61.983,120.891c4.71,10.059,8.798,20.422,12.566,30.793l1.887,1.568
		c-4.23-11.709-8.944-23.238-14.14-34.559v2.197"/>
	<path fill="#6F97D4" d="M61.983,118.693c5.654,11.629,10.681,23.25,15.395,35.191l1.572,1.254
		c-5.026-13.195-10.683-25.764-16.967-38.326V118.693"/>
	<path fill="#6F97D4" d="M62.297,116.813c6.914,13.193,12.566,26.387,17.597,38.957l1.569,0.627
		c-5.619-14.117-11.912-27.957-18.852-41.471v1.887"/>
	<path fill="#6F97D4" d="M62.611,114.926c7.227,13.824,13.825,27.961,19.795,42.1l1.257,0.941
		c-5.969-15.705-12.882-30.164-20.738-44.611v1.57"/>
	<path fill="#6F97D4" d="M62.925,113.355c8.17,14.447,15.712,29.531,21.994,44.928l1.257,0.627
		c-6.599-16.023-14.452-31.734-22.621-47.129L62.925,113.355"/>
	<path fill="#6F97D4" d="M63.555,111.781c8.796,15.711,16.652,31.418,23.878,47.445l1.258,0.627
		c-7.856-17.592-16.026-34.248-25.136-49.332V111.781"/>
	<path fill="#6F97D4" d="M63.868,110.521c9.426,15.711,18.223,32.678,26.077,49.643l1.258,0.316
		c-8.483-18.219-17.595-35.5-27.022-51.527l-0.313,1.258"/>
	<path fill="#6F97D4" d="M92.459,160.797h1.257c-9.11-18.854-18.853-36.449-28.905-53.1l-0.63,1.256
		C74.454,125.76,83.891,143.064,92.459,160.797"/>
	<path fill="#6F97D4" d="M94.973,161.111h1.257c-9.476-18.518-19.857-36.547-31.105-54.041v0.627
		c10.997,17.283,21.052,35.189,30.164,53.414H94.973z"/>
	<path fill="#6F97D4" d="M97.486,161.424h1.257c-10.089-19.162-21.1-37.826-32.989-55.926l-0.63,1.256
		c11.625,17.594,22.622,35.508,32.362,54.357"/>
	<path fill="#6F97D4" d="M99.999,161.424h1.26c-10.746-19.48-22.387-38.457-34.878-56.869l-0.627,0.943
		c13.509,20.107,25.136,39.271,34.561,55.926"/>
	<path fill="#6F97D4" d="M102.828,161.424h0.943c-11.626-19.795-23.878-39.273-37.078-58.127l-0.313,1.258
		c12.569,18.223,25.136,37.389,36.133,56.869"/>
	<path fill="#6F97D4" d="M105.97,161.111c-11.975-20.098-24.762-39.697-38.332-58.756l-0.627,0.941
		c13.51,18.854,26.392,38.016,38.331,57.814h1.257"/>
	<path fill="#6F97D4" d="M108.798,160.48c-12.882-20.105-26.707-39.9-40.845-59.064l-0.629,0.939
		c14.139,18.852,27.648,38.334,40.218,58.441h1.256"/>
	<path fill="#6F97D4" d="M110.998,159.854c-13.512-20.422-27.651-40.217-42.417-59.383l-0.628,0.945
		c16.652,21.361,31.106,42.098,42.102,58.748L110.998,159.854"/>
	<path fill="#6F97D4" d="M112.254,159.227h1.257l-0.63-0.943c-14.138-20.111-28.591-39.59-43.986-58.754l-0.313,0.941
		c15.082,19.166,29.849,38.961,43.986,58.756 M114.767,158.283h0.944l-0.944-1.887C99.686,136.918,85.232,117.123,69.838,98.9
		l-0.627,0.629C84.919,118.693,99.999,138.488,114.767,158.283"/>
	<path fill="#6F97D4" d="M117.911,156.709c-15.397-19.814-31.215-39.301-47.444-58.438L69.838,98.9
		c16.024,19.482,32.047,38.957,47.129,58.758c0.627,0,0.944-0.316,0.944-0.633"/>
	<path fill="#6F97D4" d="M120.108,155.453c-15.901-19.754-32.135-39.236-48.7-58.439l-0.627,0.943
		c16.651,18.855,32.99,38.33,49.014,58.129l0.629-0.633 M122.621,153.885c-16.729-19.375-33.697-38.543-50.897-57.498l-0.629,0.627
		c18.851,20.736,35.816,40.844,50.271,57.498c0.313,0,0.629,0,0.942-0.627 M124.507,152.314L72.351,95.758l-0.627,0.629
		c19.166,20.426,37.074,40.215,51.84,56.555L124.507,152.314 M126.395,150.744c-17.76-18.689-35.563-37.336-53.414-55.928
		l-0.63,0.627l53.413,55.928C125.764,151.371,125.764,150.744,126.395,150.744 M127.963,148.857L73.924,94.189l-0.943,0.627
		l54.354,54.67L127.963,148.857 M129.849,146.656c-18.851-17.594-37.076-35.502-55.299-53.41l-0.626,0.627
		c20.105,19.795,38.957,38.334,55.296,53.414L129.849,146.656 M131.106,144.77c-18.853-17.277-37.391-34.559-55.612-52.154
		l-0.944,0.631c18.853,17.592,37.075,35.189,56.557,52.154l0.313-0.631 M132.99,142.572L76.121,91.988l-0.627,0.627
		c18.535,17.283,37.703,34.25,56.552,50.584l0.631-0.627 M133.934,140.059c-19.48-15.711-38.332-32.047-56.87-48.699l-0.942,0.629
		c18.852,16.65,37.703,32.992,57.183,49.014L133.934,140.059"/>
	<path fill="#6F97D4" d="M134.247,138.805l0.63-0.947l-1.258-1.256c-18.853-14.764-37.703-30.16-55.925-45.871l-0.631,0.629
		c18.853,16.338,37.703,32.049,57.499,47.129"/>
	<path fill="#6F97D4" d="M135.504,136.287l0.315-0.939l-0.629-0.314c-19.166-14.453-38.018-29.535-56.554-44.932l-0.942,0.629
		c18.852,15.711,37.7,30.477,56.868,44.93L135.504,136.287"/>
	<path fill="#6F97D4" d="M136.447,132.83c-16.023-11.623-36.133-26.389-56.87-43.355l-0.94,0.627
		c18.85,15.082,37.701,29.852,57.811,43.988V132.83"/>
	<path fill="#6F97D4" d="M137.39,130.322c-19.796-13.199-38.96-27.025-57.183-41.477l-0.944,0.629
		c18.853,14.766,37.704,28.592,57.498,41.785v-0.938"/>
	<path fill="#6F97D4" d="M137.39,127.803c-18.852-12.566-37.704-25.76-55.927-39.586l-0.942,0.629
		c18.394,14.086,37.365,27.396,56.869,39.904V127.803"/>
	<path fill="#6F97D4" d="M138.017,125.293c-18.85-11.938-37.702-24.193-55.61-37.705l-0.943,0.629
		c18.274,13.512,37.145,26.193,56.554,38.016V125.293"/>
	<path fill="#6F97D4" d="M138.017,123.719v-1.258c-18.85-10.99-36.758-22.619-54.354-35.186l-1.257,0.313
		C99.686,100.156,118.225,112.098,138.017,123.719"/>
	<path fill="#6F97D4" d="M138.017,121.207v-1.254c-18.33-10.234-36.156-21.35-53.411-33.307l-0.942,0.629
		C100.314,98.9,118.538,110.211,138.017,121.207"/>
	<path fill="#6F97D4" d="M137.703,118.693v-1.57c-17.908-9.426-35.189-20.109-51.841-31.418l-1.257,0.627
		c16.653,10.996,34.562,21.992,53.411,32.051"/>
	<path fill="#6F97D4" d="M137.39,115.863v-1.252c-17.595-8.801-34.562-18.539-50.271-28.906l-1.257,0.314
		C102.508,96.854,119.706,106.818,137.39,115.863"/>
	<path fill="#6F97D4" d="M136.761,112.098c-16.652-8.17-32.676-16.967-48.384-27.021l-1.258,0.629
		c15.395,9.426,32.048,18.85,49.957,27.65L136.761,112.098"/>
	<path fill="#6F97D4" d="M135.819,109.584c-15.711-7.541-31.422-15.711-46.188-24.822l-1.255,0.314
		c14.766,9.426,30.79,17.908,47.756,25.762v-1.254"/>
	<path fill="#6F97D4" d="M134.877,107.07c-15.082-6.914-29.535-14.455-43.987-22.625l-1.258,0.316
		c14.766,8.797,30.163,16.654,45.872,23.563L134.877,107.07"/>
	<path fill="#6F97D4" d="M133.619,104.555c-13.824-6.283-27.649-13.195-40.847-20.422h-1.569
		c13.824,8.17,28.278,15.396,43.044,21.678l-0.628-1.57"/>
	<path fill="#6F97D4" d="M132.361,101.729c-12.88-5.342-25.45-11.313-37.702-17.91h-1.887c13.197,7.227,26.709,13.826,40.218,19.479
		L132.361,101.729"/>
	<path fill="#6F97D4" d="M130.476,99.215c-11.624-4.713-22.934-10.055-34.246-15.709h-1.885
		c12.254,6.283,24.507,12.252,37.389,17.279L130.476,99.215"/>
	<path fill="#6F97D4" d="M128.591,96.387c-10.366-3.771-20.106-8.17-29.848-13.197h-2.197c10.683,5.656,21.992,10.684,33.303,15.082
		L128.591,96.387"/>
	<path fill="#6F97D4" d="M126.708,94.816l-0.944-0.943c-8.17-3.143-16.339-6.91-24.505-10.684h-2.516
		c9.275,4.227,18.709,8.105,28.277,11.627"/>
	<path fill="#6F97D4" d="M122.308,90.73l-17.597-7.225h-3.139l23.249,9.426L122.308,90.73 M115.395,86.646l-3.141-1.258
		c-2.199-0.943-4.398-1.256-6.912-1.57l16.337,6.283C119.481,88.531,117.594,87.588,115.395,86.646"/>
	<path fill="#6F97D4" d="M136.133,65.279l-1.256-3.139l-3.144-6.283c1.57,5.654,3.771,10.996,5.97,16.648L136.133,65.279
		 M137.703,72.822L130.476,54.6l-1.885-2.514l9.426,24.193L137.703,72.822"/>
	<path fill="#6F97D4" d="M138.017,76.279c-3.77-8.17-7.227-16.652-10.367-25.139l-1.571-1.883
		c3.455,10.053,7.541,20.107,11.938,29.848V76.279"/>
	<path fill="#6F97D4" d="M138.017,79.42c-4.794-10.301-9.196-20.783-13.195-31.42l-1.571-1.254
		c4.084,11.625,9.111,22.934,14.14,34.561v-2.514"/>
	<path fill="#6F97D4" d="M137.703,81.307c-5.342-11.314-10.683-23.252-15.082-35.191c-0.514-0.328-1.038-0.643-1.57-0.943
		c5.027,12.883,10.369,25.764,16.652,38.334V81.307"/>
	<path fill="#6F97D4" d="M137.39,83.506c-6.283-12.57-11.939-25.766-17.281-38.961l-1.57-0.943
		c5.656,14.139,11.938,28.279,18.852,41.475V83.506"/>
	<path fill="#6F97D4" d="M137.39,85.389c-7.228-13.822-13.826-28.277-19.796-42.414l-1.569-0.629
		c6.283,15.709,13.509,30.477,20.736,44.617L137.39,85.389"/>
	<path fill="#6F97D4" d="M136.761,86.963c-7.854-14.77-15.082-29.852-21.994-45.246l-0.942-0.627
		c6.6,16.338,14.139,32.047,22.623,47.127L136.761,86.963"/>
	<path fill="#6F97D4" d="M136.447,88.531c-8.798-15.709-16.652-31.42-23.88-47.758l-1.256-0.313
		c7.427,16.854,15.711,33.318,24.821,49.328L136.447,88.531"/>
	<path fill="#6F97D4" d="M136.133,89.789c-9.425-16.023-18.222-32.678-26.078-49.957h-1.257
		c8.482,17.908,17.28,35.188,27.021,51.213v-1.256"/>
	<path fill="#6F97D4" d="M107.542,39.52l-1.257-0.316c9.109,18.852,18.852,36.762,28.905,53.412l0.629-1.57
		C125.557,74.342,116.118,57.146,107.542,39.52"/>
	<path fill="#6F97D4" d="M105.027,38.889h-1.256c9.739,19.166,20.108,37.703,30.791,54.67l0.628-1.256
		C124.194,75.02,114.138,57.111,105.027,38.889"/>
	<path fill="#6F97D4" d="M102.514,38.576h-1.255c10.366,19.795,21.362,38.643,32.988,55.926l0.63-0.943
		c-12.256-17.91-22.623-36.131-32.679-54.982"/>
	<path fill="#6F97D4" d="M99.686,38.576h-0.942c10.998,20.422,22.936,39.586,34.876,57.182l0.628-0.941
		C120.737,74.395,109.111,54.914,99.686,38.576z"/>
	<path fill="#6F97D4" d="M97.173,38.576h-0.627c11.31,20.107,23.878,39.586,37.073,58.125l0.314-0.943
		c-12.568-18.539-25.136-37.703-36.447-57.182"/>
	<path fill="#6F97D4" d="M93.716,39.203c12.188,20.002,25.186,39.498,38.961,58.441l0.627-0.943
		c-13.822-18.852-26.393-37.703-38.645-57.813h-0.943"/>
	<path fill="#6F97D4" d="M91.203,39.52c12.882,20.42,26.391,39.9,40.843,59.064l0.631-0.939
		c-14.139-18.852-27.649-38.334-40.218-58.125H91.203"/>
	<path fill="#6F97D4" d="M88.69,40.461c13.563,20.172,27.814,39.871,42.729,59.068l0.626-0.629
		c-14.766-19.48-29.218-38.961-42.101-58.756H88.69"/>
	<path fill="#6F97D4" d="M87.433,40.773L86.49,41.09l0.629,0.941c11.624,16.652,26.392,37.074,43.987,58.439l0.313-0.941
		c-15.082-18.854-29.535-38.332-43.674-58.127L87.433,40.773"/>
	<path fill="#6F97D4" d="M84.919,41.717l-0.942,0.314l1.256,1.885c14.453,19.48,29.534,38.646,44.93,57.5l0.628-0.945
		C115.395,81.621,99.686,61.826,84.919,41.717"/>
	<path fill="#6F97D4" d="M81.776,43.289c13.825,17.594,29.849,37.701,47.757,59.066l0.629-0.939
		c-16.126-19.141-31.839-38.627-47.129-58.441L81.776,43.289"/>
	<path fill="#6F97D4" d="M79.577,44.859l49.33,58.125l0.626-0.629c-16.561-19.098-32.796-38.477-48.699-58.123l-0.94,0.313
		 M78.008,46.115l50.27,57.813l0.942-0.943c-16.99-18.959-33.748-38.129-50.27-57.496C78.321,45.488,78.008,45.803,78.008,46.115
		 M75.808,47.688l52.155,56.867l0.628-0.627L76.749,47.373L75.808,47.688 M73.924,49.57l53.41,55.928c0-0.314,0-0.627,0.629-0.943
		L74.236,48.943l-0.628,0.627 M71.724,51.457l54.354,54.67l0.63-0.629L72.664,50.514L71.724,51.457 M70.151,53.342l55.299,53.412
		l0.628-0.627L70.781,52.715L70.151,53.342 M68.581,55.541c18.852,16.965,37.704,34.561,55.926,51.844l0.943-0.631
		C106.92,89.137,88.17,71.752,69.211,54.6L68.581,55.541 M67.324,57.74l56.556,50.271l0.627-0.314
		c-18.537-17.281-37.388-34.561-56.239-50.9l-0.63,0.943"/>
	<path fill="#6F97D4" d="M66.067,59.939c19.165,15.709,38.33,32.363,56.869,49.014l0.943-0.629
		C105.027,91.359,86.176,75.02,66.693,58.998L66.067,59.939"/>
	<path fill="#6F97D4" d="M65.438,61.512l-0.314,0.941l1.257,0.943c15.71,12.568,35.191,28.279,55.613,46.188l0.942-0.631
		C104.195,92.635,85.023,76.813,65.438,61.512 M64.497,63.711l-0.316,1.256l0.63,0.313c19.166,14.457,38.018,29.223,56.555,44.932
		l0.629-0.627C103.771,93.873,84.605,78.793,65.438,64.34L64.497,63.711"/>
	<path fill="#6F97D4" d="M63.241,67.168c16.336,11.625,36.444,26.391,57.183,43.67l0.941-0.627
		c-18.852-15.395-38.019-29.848-57.811-43.986v0.943"/>
	<path fill="#6F97D4" d="M62.611,69.992c19.371,13.105,38.233,26.939,56.556,41.479l1.257-0.633
		c-18.852-14.766-37.704-28.904-57.499-42.1v1.254"/>
	<path fill="#6F97D4" d="M62.297,72.506c19.166,12.57,37.702,25.451,56.241,39.275l0.943-0.311
		c-18.539-14.143-37.705-27.652-56.87-40.221v1.256"/>
	<path fill="#6F97D4" d="M61.983,75.02c18.851,11.627,37.702,24.195,55.61,37.705l0.944-0.943
		c-18.224-13.51-37.075-26.076-56.555-37.701V75.02"/>
	<g transform="translate(3 15)">
		<defs>
			<filter id="Adobe_OpacityMaskFilter" filterUnits="userSpaceOnUse" x="58.983" y="61.279" width="55.61" height="36.762">
				<feColorMatrix  type="matrix" values="1 0 0 0 0  0 1 0 0 0  0 0 1 0 0  0 0 0 1 0"/>
			</filter>
		</defs>
		<mask maskUnits="userSpaceOnUse" x="58.983" y="61.279" width="55.61" height="36.762" id="f_2_">
			<g filter="url(#Adobe_OpacityMaskFilter)">
				<path id="e_2_" fill="#FFFFFF" d="M58.983,61.592h55.61v36.449h-55.61V61.592z"/>
			</g>
		</mask>
		<path mask="url(#f_2_)" fill="#6F97D4" d="M58.983,61.592v1.258c18.851,10.682,36.76,22.621,54.354,35.191l1.256-0.316
			c-17.279-12.568-35.817-24.508-55.61-36.445"/>
	</g>
	<path fill="#6F97D4" d="M61.983,79.105v1.258c18.324,10.129,36.15,21.139,53.411,32.992c0.316-0.104,0.633-0.207,0.943-0.314
		C99.686,101.1,81.149,89.789,61.983,79.105z"/>
	<path fill="#6F97D4" d="M61.983,81.621l0.313,1.254c17.91,9.428,35.189,19.795,51.841,31.42l1.257-0.627
		C98.743,102.355,80.834,91.676,61.983,81.621"/>
	<path fill="#6F97D4" d="M62.611,84.133v1.256c17.282,8.801,34.248,18.852,50.27,29.223l1.257-0.633
		C98.115,103.613,80.834,93.559,62.611,84.133"/>
	<path fill="#6F97D4" d="M63.241,87.902c15.08,7.541,31.418,16.338,48.384,27.023l1.256-0.314
		c-15.708-10.057-32.047-19.48-49.956-27.965L63.241,87.902"/>
	<path fill="#6F97D4" d="M64.181,90.73c15.713,7.227,31.421,15.711,46.188,24.506h1.257c-14.766-9.426-30.791-17.908-48.07-26.076
		L64.181,90.73"/>
	<path fill="#6F97D4" d="M65.124,93.246c14.77,6.91,29.535,14.139,43.987,22.617l1.257-0.627
		C95.602,106.754,80.207,98.9,64.497,91.988L65.124,93.246"/>
	<path fill="#6F97D4" d="M66.381,95.758c13.826,6.285,27.648,12.881,40.848,20.422l1.569-0.316
		c-14.139-7.852-28.277-15.078-43.359-21.361L66.381,95.758"/>
	<path fill="#6F97D4" d="M67.638,98.271c12.256,5.342,25.135,11.313,37.704,18.225l1.887-0.316
		c-13.199-7.227-26.708-13.51-40.535-19.166L67.638,98.271"/>
	<path fill="#6F97D4" d="M69.524,101.1c11.527,4.75,22.852,9.992,33.932,15.713l1.886-0.316
		c-11.939-6.285-24.508-11.941-37.074-16.967L69.524,101.1"/>
	<path fill="#6F97D4" d="M71.408,103.613c9.741,3.771,19.795,8.168,29.851,13.199h2.197c-10.997-5.658-21.993-10.371-33.305-14.77
		L71.408,103.613"/>
	<path fill="#6F97D4" d="M72.98,105.498l0.943,0.943c8.167,3.143,16.336,6.283,24.819,10.371h2.516
		C91.977,112.688,82.544,108.912,72.98,105.498"/>
	<path fill="#6F97D4" d="M77.694,109.268l17.594,7.229l3.142,0.316l-23.566-9.428L77.694,109.268 M84.919,113.668l3.141,1.258
		l6.6,1.57l-15.709-6.285c1.57,1.26,3.77,2.514,5.969,3.145"/>
</g>
</svg>
