<?xml version="1.0" encoding="utf-8"?>
<!-- Generator: Adobe Illustrator 16.0.0, SVG Export Plug-In . SVG Version: 6.00 Build 0)  -->
<!DOCTYPE svg PUBLIC "-//W3C//DTD SVG 1.1//EN" "http://www.w3.org/Graphics/SVG/1.1/DTD/svg11.dtd">
<svg version="1.1" id="Layer_1" xmlns="http://www.w3.org/2000/svg" xmlns:xlink="http://www.w3.org/1999/xlink" x="0px" y="0px"
	 width="200px" height="200px" viewBox="0 0 200 200" enable-background="new 0 0 200 200" xml:space="preserve">
<path fill="none" d="M0,0h200v200H0V0z"/>
<g>
	<path fill="#6F97D4" d="M74.573,89.549l25.442-25.432l25.453,25.453l14.796-14.806l-40.249-40.26L59.767,74.754L74.573,89.549z"/>
	<path fill="#6F97D4" d="M34.5,100.01l14.796-14.807l14.806,14.807l-14.806,14.797L34.5,100.01z"/>
	<path fill="#6F97D4" d="M74.573,110.461l25.442,25.442l25.453-25.453l14.807,14.785l-40.25,40.26l-40.259-40.229L74.573,110.461z"
		/>
	<path fill="#6F97D4" d="M135.898,100.01l14.795-14.807L165.5,100l-14.807,14.816L135.898,100.01z"/>
	<path fill="#6F97D4" d="M115.028,100l-15.013-15.023L88.914,96.079l-1.283,1.271l-2.629,2.629l15.014,15.002l15.013-14.972V100z"/>
</g>
</svg>
