<?xml version="1.0" encoding="utf-8"?>
<!-- Generator: Adobe Illustrator 16.0.0, SVG Export Plug-In . SVG Version: 6.00 Build 0)  -->
<!DOCTYPE svg PUBLIC "-//W3C//DTD SVG 1.1//EN" "http://www.w3.org/Graphics/SVG/1.1/DTD/svg11.dtd">
<svg version="1.1" id="Layer_1" xmlns="http://www.w3.org/2000/svg" xmlns:xlink="http://www.w3.org/1999/xlink" x="0px" y="0px"
	 width="200px" height="200px" viewBox="0 0 200 200" enable-background="new 0 0 200 200" xml:space="preserve">
<path fill="none" d="M0,0h200v200H0V0z"/>
<path fill="#6F97D4" d="M156.184,96.259c-1.574,0-3.63,0.473-5.878,2.721l-12.512,12.631c-0.164-0.27-0.309-0.533-0.564-0.785
	c-10.556-10.389-21.086-20.76-31.642-31.148c-1.465-1.441-3.826-1.439-5.292,0.002c-6.267,6.17-12.527,12.373-18.795,18.518
	C68.536,85.001,55.573,71.288,42.609,57.854c-3.364-3.484-8.661,1.832-5.302,5.311c13.833,14.334,27.668,28.668,41.501,43
	c1.428,1.48,3.867,1.338,5.304-0.076c6.262-6.164,12.523-12.422,18.786-18.576c9.692,9.939,19.385,19.037,29.077,28.576
	c0.266,0.262,0.544,0.455,0.827,0.619l-12.426,12.445c-3.083,3.082-3.101,6.874-2.11,9.265c0.989,2.391,3.625,5.082,7.986,5.082
	h28.416c5.515,0,8.831-4.763,8.831-10.276V104.81C163.5,99.257,160.014,96.259,156.184,96.259z M156.5,133.224
	c0,1.65-0.181,3.276-1.831,3.276h-28.416c-1.65,0-2.046-1.092-0.879-2.258l30.08-30.243c0.453-0.453,0.384-0.658,0.729-0.658
	c0.543,0,0.316,0.459,0.316,1.469V133.224z"/>
</svg>
