<?xml version="1.0" encoding="utf-8"?>
<!-- Generator: Adobe Illustrator 16.0.0, SVG Export Plug-In . SVG Version: 6.00 Build 0)  -->
<!DOCTYPE svg PUBLIC "-//W3C//DTD SVG 1.1//EN" "http://www.w3.org/Graphics/SVG/1.1/DTD/svg11.dtd">
<svg version="1.1" id="Layer_1" xmlns="http://www.w3.org/2000/svg" xmlns:xlink="http://www.w3.org/1999/xlink" x="0px" y="0px"
	 width="200px" height="200px" viewBox="0 0 200 200" enable-background="new 0 0 200 200" xml:space="preserve">
<path fill="none" d="M0,0h200v200H0V0z"/>
<path fill="#6F97D4" d="M161.563,92.93l-20.187-20.094c-2.249-2.249-4.938-2.721-6.513-2.721c-3.83,0-8.363,2.996-8.363,8.549V97.5
	h-54V78.664c0-5.553-3.973-8.549-7.803-8.549c-1.573,0-3.871,0.472-6.12,2.719L38.508,92.928
	c-3.898,3.898-3.887,10.242,0.011,14.141l20.1,20.096c2.248,2.248,4.5,2.721,6.074,2.721c3.831,0,7.807-2.997,7.807-8.55V104.5h54
	v16.835c0,5.553,4.533,8.55,8.364,8.55c1.573,0,4.152-0.473,6.401-2.723l20.207-20.092C165.371,103.17,165.46,96.828,161.563,92.93z
	 M65.5,121.335c0,1.009-0.259,1.55-0.804,1.55c-0.346,0-0.718-0.218-1.17-0.671L43.458,102.12c-1.167-1.167-1.154-3.075,0.013-4.242
	l20.175-20.093c0.453-0.453,0.698-0.67,1.044-0.67c0.544,0,0.811,0.539,0.811,1.549V121.335z M156.612,102.12l-20.079,20.094
	c-0.453,0.453-1.33,0.671-1.676,0.671c-0.545,0-1.357-0.541-1.357-1.55V78.664c0-1.01,0.82-1.549,1.363-1.549
	c0.346,0,0.998,0.217,1.451,0.67l20.209,20.093C157.689,99.045,157.779,100.953,156.612,102.12z"/>
</svg>
