<?xml version="1.0" encoding="utf-8"?>
<!-- Generator: Adobe Illustrator 16.0.0, SVG Export Plug-In . SVG Version: 6.00 Build 0)  -->
<!DOCTYPE svg PUBLIC "-//W3C//DTD SVG 1.1//EN" "http://www.w3.org/Graphics/SVG/1.1/DTD/svg11.dtd">
<svg version="1.1" id="Layer_1" xmlns="http://www.w3.org/2000/svg" xmlns:xlink="http://www.w3.org/1999/xlink" x="0px" y="0px"
	 width="200px" height="200px" viewBox="0 0 200 200" enable-background="new 0 0 200 200" xml:space="preserve">
<path fill="none" d="M0,0h200v200H0V0z"/>
<path d="M163.5,94.69V66.276c0-5.514-3.316-8.776-8.831-8.776h-28.416c-4.36,0-6.997,1.941-7.985,4.332
	c-0.99,2.391-0.974,5.628,2.109,8.71l12.426,12.347c-0.283,0.164-0.562,0.309-0.826,0.57c-9.692,9.539-19.386,18.611-29.078,28.551
	c-6.262-6.154-12.523-12.424-18.786-18.588c-1.437-1.414-3.876-1.563-5.304-0.082c-13.833,14.331-27.667,28.662-41.5,42.996
	c-3.358,3.479,1.939,8.795,5.304,5.311c12.964-13.434,25.93-27.148,38.895-40.345c6.268,6.146,12.533,12.349,18.801,18.519
	c1.466,1.44,3.839,1.443,5.304,0.002c10.556-10.389,21.109-20.759,31.666-31.148c0.256-0.252,0.447-0.516,0.611-0.785l12.607,12.63
	c2.248,2.248,4.111,2.721,5.688,2.721C160.014,103.24,163.5,100.243,163.5,94.69z M156.5,94.69c0,1.01,0.227,1.559-0.316,1.559
	c-0.346,0-0.468-0.115-0.92-0.568l-29.984-29.672c-1.168-1.166-0.676-1.508,0.975-1.508h28.416c1.65,0,1.831,0.125,1.831,1.776
	L156.5,94.69L156.5,94.69z"/>
</svg>
