<?xml version="1.0" encoding="utf-8"?>
<!-- Generator: Adobe Illustrator 16.0.0, SVG Export Plug-In . SVG Version: 6.00 Build 0)  -->
<!DOCTYPE svg PUBLIC "-//W3C//DTD SVG 1.1//EN" "http://www.w3.org/Graphics/SVG/1.1/DTD/svg11.dtd">
<svg version="1.1" id="Layer_1" xmlns="http://www.w3.org/2000/svg" xmlns:xlink="http://www.w3.org/1999/xlink" x="0px" y="0px"
	 width="200px" height="200px" viewBox="0 0 200 200" enable-background="new 0 0 200 200" xml:space="preserve">
<path fill="none" d="M0,0h200v200H0V0z"/>
<path d="M156.184,96.259c-1.574,0-3.629,0.473-5.877,2.721l-12.513,12.631c-0.164-0.271-0.31-0.533-0.563-0.785
	c-10.557-10.389-21.086-20.76-31.643-31.148c-1.465-1.441-3.826-1.438-5.292,0.002c-6.267,6.17-12.527,12.373-18.795,18.518
	c-12.965-13.197-25.928-26.91-38.892-40.344c-3.364-3.484-8.661,1.832-5.302,5.311c13.833,14.334,27.668,28.668,41.501,43
	c1.428,1.479,3.867,1.338,5.304-0.076c6.262-6.164,12.523-12.422,18.787-18.576c9.691,9.939,19.385,19.037,29.076,28.576
	c0.267,0.263,0.545,0.455,0.827,0.619l-12.426,12.444c-3.083,3.082-3.101,6.875-2.11,9.266c0.989,2.391,3.625,5.082,7.986,5.082
	h28.416c5.516,0,8.831-4.764,8.831-10.275v-28.414C163.5,99.257,160.014,96.259,156.184,96.259z M156.5,133.225
	c0,1.649-0.182,3.275-1.831,3.275h-28.416c-1.649,0-2.046-1.092-0.879-2.258l30.08-30.243c0.453-0.453,0.384-0.658,0.729-0.658
	c0.543,0,0.315,0.459,0.315,1.47L156.5,133.225L156.5,133.225z"/>
</svg>
