<?xml version="1.0" encoding="utf-8"?>
<!-- Generator: Adobe Illustrator 16.0.0, SVG Export Plug-In . SVG Version: 6.00 Build 0)  -->
<!DOCTYPE svg PUBLIC "-//W3C//DTD SVG 1.1//EN" "http://www.w3.org/Graphics/SVG/1.1/DTD/svg11.dtd">
<svg version="1.1" id="Layer_1" xmlns="http://www.w3.org/2000/svg" xmlns:xlink="http://www.w3.org/1999/xlink" x="0px" y="0px"
	 width="206px" height="206px" viewBox="0 0 206 206" enable-background="new 0 0 206 206" xml:space="preserve">
<g>
	<g>
		<polygon fill="#0000FF" points="198,0 164,0 164,9 197,9 197,42 206,42 206,8 206,0 		"/>
	</g>
	<g>
		<polygon fill="#0000FF" points="197,197 164,197 164,206 198,206 206,206 206,197 206,164 197,164 		"/>
	</g>
	<g>
		<polygon fill="#0000FF" points="0,0 0,8 0,42 9,42 9,9 42,9 42,0 9,0 		"/>
	</g>
	<g>
		<polygon fill="#0000FF" points="9,164 0,164 0,197 0,206 9,206 42,206 42,197 9,197 		"/>
	</g>
</g>
</svg>
