<?xml version="1.0" encoding="utf-8"?>
<!-- Generator: Adobe Illustrator 16.0.0, SVG Export Plug-In . SVG Version: 6.00 Build 0)  -->
<!DOCTYPE svg PUBLIC "-//W3C//DTD SVG 1.1//EN" "http://www.w3.org/Graphics/SVG/1.1/DTD/svg11.dtd">
<svg version="1.1" id="Layer_1" xmlns="http://www.w3.org/2000/svg" xmlns:xlink="http://www.w3.org/1999/xlink" x="0px" y="0px"
	 width="167.824px" height="168.157px" viewBox="19.088 171.833 167.824 168.157"
	 enable-background="new 19.088 171.833 167.824 168.157" xml:space="preserve">
<g>
	<polygon fill="#0000FF" points="152.756,173.333 152.756,181.021 176.225,181.021 177.725,181.021 177.725,182.521 177.725,205.99 
		185.412,205.99 185.412,182.521 185.412,173.333 176.225,173.333 	"/>
	<path fill="#FFFFFF" d="M176.225,171.833h-24.969v10.688h24.969v24.97h10.688v-24.97v-10.688H176.225z M185.412,182.521v23.47
		h-7.688v-23.47v-1.5h-1.5h-23.469v-7.688h23.469h9.188V182.521z"/>
	<polygon fill="#0000FF" points="20.588,173.333 20.588,182.521 20.588,205.99 28.276,205.99 28.276,182.521 28.276,181.021 
		29.776,181.021 53.245,181.021 53.245,173.333 29.776,173.333 	"/>
	<path fill="#FFFFFF" d="M19.088,171.833v10.688v24.97h10.688v-24.97h24.969v-10.688H29.776H19.088z M53.245,181.021H29.776h-1.5
		v1.5v23.47h-7.688v-23.47v-9.188h9.188h23.469V181.021z"/>
	<polygon fill="#0000FF" points="152.756,330.803 152.756,338.49 176.225,338.49 185.412,338.49 185.412,329.303 185.412,305.833 
		177.725,305.833 177.725,329.303 177.725,330.803 176.225,330.803 	"/>
	<path fill="#FFFFFF" d="M176.225,329.303h-24.969v10.688h24.969h10.688v-10.688v-24.97h-10.688V329.303z M177.725,329.303v-23.47
		h7.688v23.47v9.188h-9.188h-23.469v-7.688h23.469h1.5V329.303z"/>
	<polygon fill="#0000FF" points="28.276,330.803 28.276,329.303 28.276,305.833 20.588,305.833 20.588,329.303 20.588,338.49 
		29.776,338.49 53.245,338.49 53.245,330.803 29.776,330.803 	"/>
	<path fill="#FFFFFF" d="M29.776,304.333H19.088v24.97v10.688h10.688h24.969v-10.688H29.776V304.333z M53.245,330.803v7.688H29.776
		h-9.188v-9.188v-23.47h7.688v23.47v1.5h1.5H53.245z"/>
</g>
</svg>
