<?xml version="1.0" encoding="utf-8"?>
<!-- Generator: Adobe Illustrator 16.0.0, SVG Export Plug-In . SVG Version: 6.00 Build 0)  -->
<!DOCTYPE svg PUBLIC "-//W3C//DTD SVG 1.1//EN" "http://www.w3.org/Graphics/SVG/1.1/DTD/svg11.dtd">
<svg version="1.1" id="Layer_1" xmlns="http://www.w3.org/2000/svg" xmlns:xlink="http://www.w3.org/1999/xlink" x="0px" y="0px"
	 width="68.18px" height="68.307px" viewBox="169.014 318.05 68.18 68.307" enable-background="new 169.014 318.05 68.18 68.307"
	 xml:space="preserve">
<g>
	<polygon fill="#0000FF" points="173.904,322.939 184.695,322.939 184.695,319.3 170.264,319.3 170.264,333.73 173.904,333.73 	"/>
	<path fill="#FFFFFF" d="M169.014,334.98h6.141v-10.791h10.791v-6.14h-16.932V334.98z M170.264,319.3h14.432v3.64h-10.791v10.791
		h-3.641V319.3z"/>
	<polygon fill="#0000FF" points="221.514,322.939 232.303,322.939 232.303,333.73 235.943,333.73 235.943,319.3 221.514,319.3 	"/>
	<path fill="#FFFFFF" d="M220.264,318.05v6.14h10.789v10.791h6.141V318.05H220.264z M235.943,333.73h-3.641v-10.791h-10.789v-3.64
		h14.43V333.73z"/>
	<polygon fill="#0000FF" points="173.904,370.676 170.264,370.676 170.264,385.106 184.695,385.106 184.695,381.467 
		173.904,381.467 	"/>
	<path fill="#FFFFFF" d="M175.154,369.426h-6.141v16.931h16.932v-6.14h-10.791V369.426z M184.695,385.106h-14.432v-14.431h3.641
		v10.791h10.791V385.106z"/>
	<polygon fill="#0000FF" points="221.514,385.106 235.943,385.106 235.943,370.676 232.303,370.676 232.303,381.467 
		221.514,381.467 	"/>
	<path fill="#FFFFFF" d="M231.053,380.217h-10.789v6.14h16.93v-16.931h-6.141V380.217z M232.303,370.676h3.641v14.431h-14.43v-3.64
		h10.789V370.676z"/>
</g>
</svg>
