<?xml version="1.0" encoding="utf-8"?>
<!-- Generator: Adobe Illustrator 16.0.0, SVG Export Plug-In . SVG Version: 6.00 Build 0)  -->
<!DOCTYPE svg PUBLIC "-//W3C//DTD SVG 1.1//EN" "http://www.w3.org/Graphics/SVG/1.1/DTD/svg11.dtd">
<svg version="1.1" id="Layer_1" xmlns="http://www.w3.org/2000/svg" xmlns:xlink="http://www.w3.org/1999/xlink" x="0px" y="0px"
	 width="104.947px" height="104.865px" viewBox="98.963 185.541 104.947 104.865"
	 enable-background="new 98.963 185.541 104.947 104.865" xml:space="preserve">
<g>
	<polygon fill="#0000FF" points="100.213,186.791 100.213,192.49 100.213,206.573 104.662,206.573 104.662,192.49 104.662,191.24 
		105.912,191.24 119.996,191.24 119.996,186.791 105.912,186.791 	"/>
	<path fill="#FFFFFF" d="M98.963,185.541v6.949v15.333h6.949V192.49h15.334v-6.949h-15.334H98.963z M119.996,191.24h-14.084h-1.25
		v1.25v14.083h-4.449V192.49v-5.699h5.699h14.084V191.24z"/>
	<polygon fill="#0000FF" points="104.662,284.707 104.662,283.457 104.662,269.374 100.213,269.374 100.213,283.457 
		100.213,289.156 105.912,289.156 119.996,289.156 119.996,284.707 105.912,284.707 	"/>
	<path fill="#FFFFFF" d="M105.912,268.124h-6.949v15.333v6.949h6.949h15.334v-6.949h-15.334V268.124z M119.996,284.707v4.449
		h-14.084h-5.699v-5.699v-14.083h4.449v14.083v1.25h1.25H119.996z"/>
	<polygon fill="#0000FF" points="182.879,186.791 182.879,191.24 196.961,191.24 198.211,191.24 198.211,192.49 198.211,206.573 
		202.66,206.573 202.66,192.49 202.66,186.791 196.961,186.791 	"/>
	<path fill="#FFFFFF" d="M196.961,185.541h-15.332v6.949h15.332v15.333h6.949V192.49v-6.949H196.961z M202.66,192.49v14.083h-4.449
		V192.49v-1.25h-1.25h-14.082v-4.449h14.082h5.699V192.49z"/>
	<polygon fill="#0000FF" points="182.879,284.707 182.879,289.156 196.961,289.156 202.66,289.156 202.66,283.457 202.66,269.374 
		198.211,269.374 198.211,283.457 198.211,284.707 196.961,284.707 	"/>
	<path fill="#FFFFFF" d="M196.961,283.457h-15.332v6.949h15.332h6.949v-6.949v-15.333h-6.949V283.457z M198.211,283.457v-14.083
		h4.449v14.083v5.699h-5.699h-14.082v-4.449h14.082h1.25V283.457z"/>
</g>
</svg>
