<?xml version="1.0" encoding="utf-8"?>
<!-- Generator: Adobe Illustrator 16.0.0, SVG Export Plug-In . SVG Version: 6.00 Build 0)  -->
<!DOCTYPE svg PUBLIC "-//W3C//DTD SVG 1.1//EN" "http://www.w3.org/Graphics/SVG/1.1/DTD/svg11.dtd">
<svg version="1.1" id="Layer_1" xmlns="http://www.w3.org/2000/svg" xmlns:xlink="http://www.w3.org/1999/xlink" x="0px" y="0px"
	 width="200px" height="200px" viewBox="0 0 200 200" enable-background="new 0 0 200 200" xml:space="preserve">
<path fill="none" d="M0,0h200v200H0V0z"/>
<g>
	<path d="M111.984,61.771c2.126,0,3.855,1.729,3.855,3.854s-1.729,3.854-3.855,3.854c-2.125,0-3.854-1.729-3.854-3.854
		S109.859,61.771,111.984,61.771z M100.001,72.99c2.126,0,3.854,1.729,3.854,3.854c0,2.125-1.729,3.854-3.854,3.854
		c-2.125,0-3.854-1.729-3.854-3.854C96.146,74.719,97.875,72.99,100.001,72.99z M88.017,61.771c2.125,0,3.855,1.729,3.855,3.854
		s-1.729,3.854-3.855,3.854s-3.854-1.729-3.854-3.854S85.892,61.771,88.017,61.771z M73.495,46.109
		c0.458-0.486,1.079-0.753,1.747-0.753c0.616,0,1.203,0.233,1.65,0.657c0.467,0.441,0.733,1.037,0.751,1.68
		c0.018,0.641-0.215,1.251-0.701,1.767c-0.884,0.927-2.469,0.964-3.398,0.076C72.589,48.623,72.553,47.102,73.495,46.109z"/>
	<path d="M88.017,69.48c2.125,0,3.855-1.729,3.855-3.854s-1.729-3.854-3.855-3.854s-3.854,1.729-3.854,3.854
		S85.892,69.48,88.017,69.48z"/>
	<path d="M111.984,69.48c2.126,0,3.855-1.729,3.855-3.854s-1.729-3.854-3.855-3.854c-2.125,0-3.854,1.729-3.854,3.854
		S109.859,69.48,111.984,69.48z"/>
	<path d="M100.001,80.698c2.126,0,3.854-1.729,3.854-3.854c0-2.126-1.729-3.854-3.854-3.854c-2.125,0-3.854,1.729-3.854,3.854
		C96.146,78.97,97.875,80.698,100.001,80.698z"/>
	<path d="M125.78,136.391c-0.563,0-1.11,0.199-1.542,0.561c-1.082,0.888-1.231,2.405-0.392,3.43c0.809,0.987,2.39,1.146,3.382,0.335
		l0.1-0.083c1.012-0.849,1.146-2.367,0.295-3.383C127.166,136.704,126.494,136.391,125.78,136.391z"/>
	<path d="M76.942,49.46c0.486-0.516,0.719-1.126,0.701-1.767c-0.018-0.643-0.285-1.238-0.751-1.68
		c-0.448-0.424-1.034-0.657-1.65-0.657c-0.668,0-1.288,0.267-1.747,0.753c-0.942,0.992-0.905,2.514,0.049,3.427
		C74.473,50.424,76.058,50.387,76.942,49.46z"/>
	<path d="M137.809,132.821l-0.574-0.058l0.14-0.561c0.97-3.893,1.462-7.938,1.462-12.027c0-1.773-0.096-3.572-0.284-5.346
		l-0.05-0.471l0.467-0.075c7.12-1.146,12.287-7.217,12.287-14.435c0-8.061-6.559-14.619-14.619-14.619
		c-0.612,0-1.25,0.043-1.896,0.127l-0.835,0.108l0.304-0.785c1.638-4.222,2.468-8.67,2.468-13.222c0-3.055-0.376-6.091-1.12-9.023
		l-0.102-0.405l0.38-0.173c5.771-2.624,9.5-8.428,9.5-14.785c0.001-4.332-1.69-8.408-4.763-11.48s-7.149-4.764-11.481-4.764
		c-5.339,0-10.34,2.627-13.378,7.026l-0.236,0.343l-0.381-0.172c-4.706-2.121-9.926-3.243-15.095-3.243
		c-5.169,0-10.39,1.122-15.096,3.243l-0.38,0.172l-0.237-0.343c-3.037-4.399-8.038-7.026-13.377-7.026
		c-8.957,0-16.244,7.287-16.244,16.244c0,6.358,3.729,12.162,9.5,14.785l0.38,0.173l-0.103,0.405
		c-0.743,2.932-1.12,5.968-1.12,9.023c0,4.551,0.83,8.999,2.466,13.222l0.304,0.785l-0.835-0.108
		c-0.646-0.084-1.283-0.127-1.896-0.127c-8.061,0-14.619,6.559-14.619,14.619c0,7.218,5.167,13.288,12.287,14.435l0.468,0.075
		l-0.05,0.471c-0.188,1.77-0.284,3.568-0.284,5.346c0,4.09,0.492,8.137,1.461,12.027l0.138,0.554l-0.566,0.064
		c-0.333,0.036-0.612,0.07-0.891,0.113l-0.284,0.05c-0.198,0.033-0.396,0.066-0.591,0.104l-0.33,0.075
		c-0.232,0.052-0.379,0.084-0.524,0.121l-0.347,0.095c-0.208,0.058-0.351,0.097-0.492,0.14l-0.354,0.114
		c-0.157,0.052-0.315,0.104-0.473,0.16l-0.352,0.133c-0.15,0.058-0.304,0.117-0.456,0.18l-0.343,0.147
		c-0.147,0.064-0.296,0.132-0.442,0.201l-0.338,0.163c-0.146,0.072-0.289,0.146-0.432,0.222l-0.328,0.178
		c-0.143,0.079-0.283,0.16-0.422,0.242l-0.318,0.191c-0.136,0.085-0.274,0.173-0.41,0.264l-0.304,0.201
		c-0.13,0.09-0.26,0.184-0.388,0.276l-0.302,0.221c-0.129,0.098-0.252,0.196-0.375,0.295h-0.001l-0.292,0.234
		c-0.137,0.115-0.273,0.234-0.407,0.354l-0.234,0.205c-0.15,0.138-0.297,0.281-0.444,0.424l-0.167,0.161
		c-0.4,0.4-0.786,0.825-1.148,1.263l-0.156,0.196c-0.132,0.164-0.253,0.315-0.369,0.471l-0.188,0.26
		c-0.127,0.176-0.219,0.304-0.309,0.434l-0.19,0.29c-0.092,0.141-0.184,0.281-0.273,0.426l-0.139,0.231
		c-0.129,0.221-0.213,0.362-0.292,0.506l-0.153,0.285c-0.098,0.187-0.172,0.329-0.243,0.474l-0.132,0.275
		c-0.099,0.212-0.166,0.357-0.229,0.504l-0.149,0.354c-0.062,0.149-0.12,0.298-0.176,0.446l-0.64,2.033
		c-0.038,0.15-0.072,0.305-0.106,0.457l-0.087,0.401c-0.033,0.163-0.062,0.331-0.089,0.498l-0.063,0.373
		c-0.026,0.174-0.046,0.352-0.067,0.53l-0.042,0.353c-0.018,0.176-0.029,0.353-0.041,0.529l-0.026,0.366
		c-0.015,0.303-0.023,0.605-0.023,0.909c0,0.621,0.032,1.248,0.094,1.861c0.95,9.327,8.744,16.36,18.127,16.36
		c0.285,0,0.566-0.009,0.845-0.021l0.132-0.007c0.331-0.018,0.585-0.037,0.837-0.063c6.382-0.646,11.804-4.43,14.568-10.126
		l0.244-0.503l0.473,0.299c5.726,3.618,12.245,5.531,18.852,5.531c6.606,0,13.125-1.913,18.851-5.531l0.473-0.299l0.244,0.503
		c3.059,6.302,9.336,10.217,16.383,10.217c10.047,0,18.222-8.174,18.222-18.222C154.173,141.563,147.138,133.771,137.809,132.821z
		 M65.619,57.217c-3.792-1.973-6.147-5.859-6.147-10.145c0-6.307,5.131-11.438,11.438-11.438c4.493,0,8.589,2.647,10.435,6.745
		c0.274,0.61,0.795,1.082,1.429,1.293c0.629,0.211,1.338,0.146,1.918-0.172c4.662-2.559,9.956-3.91,15.309-3.91
		c5.353,0,10.646,1.352,15.308,3.91c0.581,0.319,1.289,0.383,1.918,0.172c0.635-0.211,1.155-0.682,1.43-1.291
		c1.846-4.099,5.942-6.747,10.436-6.747c6.307,0,11.438,5.132,11.438,11.438c0,5.25-3.551,9.811-8.634,11.092
		c-0.647,0.162-1.203,0.592-1.522,1.179c-0.32,0.586-0.382,1.286-0.168,1.919c1.105,3.277,1.666,6.707,1.666,10.197
		c0,17.573-14.297,31.87-31.87,31.87c-17.574,0-31.871-14.297-31.871-31.87c0-3.434,0.545-6.816,1.621-10.053l0.054-0.141
		c0.681-2.018,1.57-3.979,2.645-5.826c0.665-1.145,0.274-2.618-0.87-3.285c-1.111-0.645-2.645-0.23-3.286,0.871
		c-0.729,1.256-1.397,2.584-1.984,3.945l-0.212,0.494L65.619,57.217z M117.254,112.684c0,6.731-1.882,13.031-5.299,17.738
		c-3.249,4.477-7.494,6.941-11.954,6.941c-4.461,0-8.707-2.465-11.955-6.941c-3.417-4.708-5.299-11.008-5.299-17.738
		c0-2.636,0.296-5.237,0.879-7.733l0.141-0.604l0.56,0.266c4.924,2.338,10.198,3.523,15.674,3.523
		c5.476,0,10.749-1.186,15.673-3.523l0.561-0.266l0.141,0.604C116.959,107.446,117.254,110.049,117.254,112.684z M77.055,154.246
		l-0.029,0.111c-1.356,5.16-5.635,9.025-10.899,9.847c-0.264,0.04-0.438,0.063-0.615,0.08l-0.161,0.018
		c-0.157,0.015-0.319,0.027-0.479,0.037l-0.182,0.011c-0.206,0.011-0.42,0.017-0.637,0.017c-6.345-0.001-11.872-4.507-13.146-10.715
		c-0.181-0.88-0.273-1.788-0.273-2.7c0-0.906,0.092-1.815,0.273-2.701c1.274-6.208,6.801-10.715,13.143-10.716
		c0.258,0,0.517,0.01,0.776,0.024l0.168,0.013c0.244,0.019,0.421,0.035,0.599,0.055c6.769,0.779,11.873,6.507,11.873,13.324
		C77.465,152.062,77.327,153.17,77.055,154.246z M135.952,164.365c-6.249,0-11.616-4.24-13.055-10.312
		c-0.026-0.115-0.064-0.223-0.105-0.328c-0.21-0.987-0.304-1.894-0.304-2.775c0-1.467,0.238-2.915,0.709-4.303
		c0.206-0.608,0.163-1.26-0.121-1.836c-0.285-0.575-0.775-1.005-1.384-1.211c-1.239-0.421-2.633,0.282-3.048,1.506
		c-0.639,1.887-0.963,3.853-0.963,5.844c0,0.754,0.054,1.547,0.158,2.357l0.039,0.3l-0.247,0.174
		c-5.307,3.726-11.403,5.694-17.631,5.694c-6.247,0-12.358-1.979-17.675-5.724l-0.246-0.174l0.038-0.299
		c0.102-0.795,0.154-1.578,0.154-2.329c0-8.53-5.806-15.83-14.12-17.751l-0.284-0.065l-0.083-0.28
		c-1.203-4.069-1.813-8.335-1.813-12.678c0-2.594,0.222-5.195,0.661-7.733c0.125-0.724-0.094-1.479-0.587-2.023
		s-1.213-0.84-1.957-0.782c-0.24,0.018-0.484,0.026-0.724,0.026c-5.411,0-9.813-4.402-9.813-9.813c0-5.411,4.402-9.813,9.813-9.813
		c2.552,0,4.97,0.978,6.808,2.751c2.526,3.49,5.536,6.443,9.004,8.844l0.294,0.204l-0.098,0.344
		c-0.95,3.343-1.432,6.877-1.432,10.503c0,7.736,2.208,15.039,6.215,20.562C88.333,139,93.96,142.17,100,142.17
		c6.04,0,11.667-3.17,15.845-8.925c4.007-5.523,6.214-12.825,6.214-20.562c0-3.629-0.481-7.163-1.431-10.503l-0.098-0.344
		l0.293-0.204c3.471-2.402,6.48-5.354,8.945-8.777c1.897-1.84,4.315-2.817,6.867-2.817c5.41,0,9.813,4.401,9.813,9.813
		c0,5.41-4.402,9.813-9.813,9.813c-0.241,0-0.485-0.009-0.727-0.027c-0.709-0.048-1.46,0.239-1.955,0.783
		c-0.5,0.553-0.715,1.29-0.588,2.023c0.439,2.535,0.662,5.137,0.662,7.733c0,4.933-0.783,9.746-2.328,14.307
		c-0.268,0.789-0.113,1.645,0.412,2.289c0.521,0.639,1.328,0.968,2.16,0.867c0.559-0.069,1.123-0.104,1.679-0.104
		c7.397,0,13.415,6.019,13.415,13.417C149.367,158.348,143.35,164.365,135.952,164.365z"/>
</g>
</svg>
