<?xml version="1.0" encoding="utf-8"?>
<!-- Generator: Adobe Illustrator 16.0.0, SVG Export Plug-In . SVG Version: 6.00 Build 0)  -->
<!DOCTYPE svg PUBLIC "-//W3C//DTD SVG 1.1//EN" "http://www.w3.org/Graphics/SVG/1.1/DTD/svg11.dtd">
<svg version="1.1" id="Layer_1" xmlns="http://www.w3.org/2000/svg" xmlns:xlink="http://www.w3.org/1999/xlink" x="0px" y="0px"
	 width="200px" height="200px" viewBox="0 0 200 200" enable-background="new 0 0 200 200" xml:space="preserve">
<path fill="none" d="M0,0h200v200H0V0z"/>
<g>
	<path fill="#6F97D4" d="M35,114.416c1.381,0,2.5-1.119,2.5-2.5v-2v-16c0-3.859,3.64-6.416,7.5-6.416h5c3.86,0,6.5,2.557,6.5,6.416
		v16v2c0,1.381,1.119,2.5,2.5,2.5s2.5-1.119,2.5-2.5v-2v-16C61.5,87.289,56.627,82.5,50,82.5h-5c-6.627,0-12.5,4.789-12.5,11.416v16
		v2C32.5,113.297,33.619,114.416,35,114.416z"/>
	<path fill="#6F97D4" d="M70,104.416c1.381,0,2.5-1.119,2.5-2.5v-3v-1v-16c0-3.859,3.64-6.416,7.5-6.416h5
		c3.86,0,6.5,2.557,6.5,6.416v5c0,1.381,1.119,2.5,2.5,2.5s2.5-1.119,2.5-2.5v-5C96.5,75.289,91.627,70.5,85,70.5h-5
		c-6.627,0-12.5,4.789-12.5,11.416v16v1v3C67.5,103.297,68.619,104.416,70,104.416z"/>
	<path fill="#6F97D4" d="M105,89.416c1.381,0,2.5-1.119,2.5-2.5v-5v-12c0-3.859,3.641-6.416,7.5-6.416h5
		c3.859,0,6.5,2.557,6.5,6.416v27v1v4c0,1.381,1.119,2.5,2.5,2.5s2.5-1.119,2.5-2.5v-4v-1v-27c0-6.627-4.873-11.416-11.5-11.416h-5
		c-6.627,0-12.5,4.789-12.5,11.416v12v5C102.5,88.297,103.619,89.416,105,89.416z"/>
	<path fill="#6F97D4" d="M140,114.416c1.381,0,2.5-1.119,2.5-2.5v-14v-40c0-3.859,3.641-6.416,7.5-6.416h5
		c3.859,0,6.5,2.557,6.5,6.416v40v14c0,1.381,1.119,2.5,2.5,2.5s2.5-1.119,2.5-2.5v-14v-40c0-6.627-4.873-11.416-11.5-11.416h-5
		c-6.627,0-12.5,4.789-12.5,11.416v40v14C137.5,113.297,138.619,114.416,140,114.416z"/>
	<path fill="#6F97D4" d="M108.288,122.857c1.319-1.34,1.778-3.19,1.778-5.142c0-3.673-2.566-6.764-6.566-7.313V107.5h-4v3h-2v-3h-4
		v3h-3v4h3v18h-1.792l-0.955,4H93.5v3h4v-3h2v3h4v-3.411c4-0.179,7.35-3.427,7.35-7.394
		C110.85,126.406,110.081,124.254,108.288,122.857z M97.5,114.5h5.455c1.975,0,3.581,1.526,3.581,3.501
		c0,1.973-1.606,3.499-3.581,3.499H97.5V114.5z M103.739,132.5H97.5v-7h6.239c1.976,0,3.583,1.526,3.583,3.499
		C107.322,130.974,105.715,132.5,103.739,132.5z"/>
	<path fill="#6F97D4" d="M184,123.076c-0.736,0-1.035-0.251-1.995-1.325c-1.065-1.193-2.675-2.995-5.724-2.995
		s-4.659,1.803-5.724,2.995c-0.96,1.074-1.259,1.325-1.994,1.325c-0.734,0-1.033-0.251-1.991-1.325
		c-1.065-1.192-2.675-2.995-5.723-2.995s-4.657,1.803-5.723,2.995c-0.959,1.074-1.258,1.325-1.992,1.325s-1.033-0.251-1.991-1.325
		c-1.064-1.192-2.674-2.995-5.722-2.995s-4.656,1.803-5.721,2.995c-0.958,1.074-1.257,1.325-1.99,1.325s-1.032-0.251-1.99-1.325
		c-1.064-1.192-2.673-2.995-5.721-2.995c-0.092,0-0.179,0.018-0.268,0.027c-2.399-14.026-14.605-24.701-29.315-24.701
		c-16.168,0-29.315,12.899-29.731,28.971c-0.528-0.078-0.87-0.396-1.681-1.303c-1.065-1.192-2.675-2.994-5.723-2.994
		c-3.049,0-4.659,1.802-5.724,2.995c-0.96,1.074-1.259,1.325-1.995,1.325c-0.734,0-1.033-0.251-1.991-1.325
		c-1.065-1.192-2.674-2.995-5.722-2.995c-3.048,0-4.658,1.803-5.723,2.995c-0.959,1.074-1.258,1.325-1.993,1.325
		c-0.734,0-1.032-0.251-1.991-1.325c-1.065-1.192-2.674-2.995-5.722-2.995c-3.047,0-4.656,1.803-5.721,2.995
		c-0.958,1.074-1.257,1.325-1.99,1.325s-1.032-0.251-1.99-1.325c-1.064-1.192-2.673-2.995-5.721-2.995c-1.381,0-2.5,1.119-2.5,2.5
		s1.119,2.5,2.5,2.5c0.733,0,1.032,0.251,1.99,1.325c1.064,1.192,2.673,2.995,5.721,2.995s4.656-1.803,5.721-2.995
		c0.958-1.074,1.257-1.325,1.99-1.325c0.734,0,1.033,0.251,1.991,1.325c1.065,1.192,2.674,2.995,5.721,2.995
		c3.048,0,4.658-1.803,5.723-2.995c0.959-1.074,1.258-1.325,1.993-1.325c0.734,0,1.033,0.251,1.991,1.325
		c1.065,1.192,2.674,2.995,5.722,2.995c3.049,0,4.659-1.802,5.724-2.995c0.96-1.074,1.259-1.325,1.995-1.325
		s1.035,0.251,1.994,1.325c1.062,1.189,2.667,2.981,5.696,2.993c2.059,14.422,14.455,25.51,29.445,25.51
		c16.433,0,29.751-13.318,29.751-29.75c0-0.023-0.002-0.047-0.002-0.069c0.616,0.04,0.943,0.329,1.824,1.316
		c1.064,1.192,2.673,2.995,5.721,2.995s4.656-1.803,5.721-2.995c0.958-1.074,1.257-1.325,1.99-1.325
		c0.734,0,1.033,0.251,1.991,1.325c1.064,1.192,2.674,2.995,5.722,2.995s4.657-1.803,5.723-2.995
		c0.959-1.074,1.258-1.325,1.992-1.325s1.033,0.251,1.992,1.325c1.065,1.192,2.674,2.995,5.722,2.995s4.658-1.802,5.723-2.994
		c0.96-1.075,1.259-1.326,1.995-1.326s1.035,0.251,1.995,1.325c1.065,1.193,2.675,2.995,5.724,2.995c1.381,0,2.5-1.119,2.5-2.5
		S185.381,123.076,184,123.076z M100.417,148.584c-13.648,0-24.751-11.103-24.751-24.75c0-13.648,11.103-24.752,24.751-24.752
		c13.647,0,24.751,11.104,24.751,24.752C125.168,137.481,114.064,148.584,100.417,148.584z"/>
</g>
</svg>
