<?xml version="1.0" encoding="utf-8"?>
<!-- Generator: Adobe Illustrator 16.0.0, SVG Export Plug-In . SVG Version: 6.00 Build 0)  -->
<!DOCTYPE svg PUBLIC "-//W3C//DTD SVG 1.1//EN" "http://www.w3.org/Graphics/SVG/1.1/DTD/svg11.dtd">
<svg version="1.1" id="Layer_1" xmlns="http://www.w3.org/2000/svg" xmlns:xlink="http://www.w3.org/1999/xlink" x="0px" y="0px"
	 width="200px" height="200px" viewBox="0 0 200 200" enable-background="new 0 0 200 200" xml:space="preserve">
<path fill="none" d="M0,0h200v200H0V0z"/>
<path fill="#6F97D4" d="M35.667,42.1h12.867l8.557,38.6h25.732l8.62-38.6h17.112l8.62,38.6h25.733l8.557-38.6h12.867l-8.557,38.6
	h8.557v12.866h-11.445l-2.841,12.866h14.286v12.867h-17.176L138.6,157.9h-17.176l-8.557-38.603H87.133L78.577,157.9H61.4
	l-8.556-38.603H35.667v-12.866h14.284l-2.833-12.867h-11.45V80.7h8.557L35.667,42.1 M107.139,93.566H92.86l-2.896,12.866h20.076
	L107.139,93.566 M69.957,138.6l4.311-19.301H65.71L69.957,138.6 M79.993,93.566h-20.01l2.833,12.866h14.281L79.993,93.566
	 M130.042,138.6l4.249-19.301h-8.559L130.042,138.6 M140.02,93.566h-20.017l2.903,12.866h14.273L140.02,93.566 M100,61.399
	L95.69,80.7h8.621L100,61.399z"/>
</svg>
