<?xml version="1.0" encoding="utf-8"?>
<!-- Generator: Adobe Illustrator 16.0.0, SVG Export Plug-In . SVG Version: 6.00 Build 0)  -->
<!DOCTYPE svg PUBLIC "-//W3C//DTD SVG 1.1//EN" "http://www.w3.org/Graphics/SVG/1.1/DTD/svg11.dtd">
<svg version="1.1" id="Layer_1" xmlns="http://www.w3.org/2000/svg" xmlns:xlink="http://www.w3.org/1999/xlink" x="0px" y="0px"
	 width="200px" height="200px" viewBox="0 0 200 200" enable-background="new 0 0 200 200" xml:space="preserve">
<path fill="none" d="M0,0h200v200H0V0z"/>
<path fill="#6F97D4" d="M64.112,121.532h14.355c0,7.754,9.834,14.356,21.532,14.356s21.532-6.604,21.532-14.356
	c0-7.894-7.465-10.767-23.257-14.571C83.06,103.154,64.11,98.423,64.11,78.468c0-12.85,10.552-23.763,25.121-27.423V35.4h21.535
	v15.644c14.565,3.66,25.121,14.573,25.121,27.423h-14.355c0-7.754-9.834-14.355-21.532-14.355s-21.532,6.602-21.532,14.355
	c0,7.892,7.466,10.767,23.256,14.572c15.213,3.807,34.166,8.537,34.166,28.492c0,12.85-10.556,23.763-25.121,27.423V164.6H89.233
	v-15.644C74.664,145.295,64.112,134.382,64.112,121.532z"/>
</svg>
