<?xml version="1.0" encoding="utf-8"?>
<!-- Generator: Adobe Illustrator 16.0.0, SVG Export Plug-In . SVG Version: 6.00 Build 0)  -->
<!DOCTYPE svg PUBLIC "-//W3C//DTD SVG 1.1//EN" "http://www.w3.org/Graphics/SVG/1.1/DTD/svg11.dtd">
<svg version="1.1" id="Layer_1" xmlns="http://www.w3.org/2000/svg" xmlns:xlink="http://www.w3.org/1999/xlink" x="0px" y="0px"
	 width="200px" height="200px" viewBox="0 0 200 200" enable-background="new 0 0 200 200" xml:space="preserve">
<path fill="none" d="M0,0h200v200H0V0z"/>
<path fill="#6F97D4" d="M163.434,91.374c0-6.151-0.168-20.198-56.315-21.311V50.177H147.6V35.94H52.401v14.236h40.481v19.886
	c-56.149,1.113-56.316,15.16-56.316,21.312s0.167,20.192,56.316,21.306v51.381h14.236V112.68
	C163.266,111.566,163.434,97.526,163.434,91.374z M100,100.335c-28.154,0-50.979-4.018-50.979-8.961
	c0-4.525,19.084-8.25,43.86-8.862v8.592h14.236v-8.592c24.773,0.612,43.861,4.337,43.861,8.862
	C150.979,96.317,128.15,100.335,100,100.335z"/>
</svg>
