<?xml version="1.0" encoding="utf-8"?>
<!-- Generator: Adobe Illustrator 16.0.0, SVG Export Plug-In . SVG Version: 6.00 Build 0)  -->
<!DOCTYPE svg PUBLIC "-//W3C//DTD SVG 1.1//EN" "http://www.w3.org/Graphics/SVG/1.1/DTD/svg11.dtd">
<svg version="1.1" id="Layer_1" xmlns="http://www.w3.org/2000/svg" xmlns:xlink="http://www.w3.org/1999/xlink" x="0px" y="0px"
	 width="200px" height="200px" viewBox="0 0 200 200" enable-background="new 0 0 200 200" xml:space="preserve">
<path fill="none" d="M0,0h200v200H0V0z"/>
<g>
	<path fill="#F3BA2F" d="M74.67,89.589l25.346-25.335l25.355,25.356l14.739-14.75l-40.095-40.106L59.92,74.85L74.67,89.589z"/>
	<path fill="#F3BA2F" d="M34.75,100.009l14.739-14.75l14.749,14.75L49.489,114.75L34.75,100.009z"/>
	<path fill="#F3BA2F" d="M74.67,110.421l25.346,25.346l25.355-25.356l14.75,14.729l-40.096,40.105L59.92,125.171L74.67,110.421z"/>
	<path fill="#F3BA2F" d="M135.762,100.009L150.5,85.26L165.25,100l-14.75,14.76L135.762,100.009z"/>
	<path fill="#F3BA2F" d="M114.971,100l-14.955-14.966L88.957,96.094l-1.278,1.267l-2.619,2.619l14.956,14.944l14.955-14.915V100z"/>
</g>
</svg>
